<svg xmlns="http://www.w3.org/2000/svg" width="20.64" height="19.742" viewBox="0 0 20.64 19.742">
  <g id="enter" transform="translate(0 -0.333)">
    <path id="Path_87706" data-name="Path 87706" d="M13.685,220.346H.673a.673.673,0,1,1,0-1.346H13.685a.673.673,0,1,1,0,1.346Zm0,0" transform="translate(0 -209.469)" fill="#fff"/>
    <path id="Path_87707" data-name="Path 87707" d="M224.677,142.156a.673.673,0,0,1-.476-1.15l3.114-3.114-3.114-3.114a.673.673,0,1,1,.952-.952l3.589,3.59a.673.673,0,0,1,0,.952l-3.589,3.589A.668.668,0,0,1,224.677,142.156Zm0,0" transform="translate(-214.581 -127.689)" fill="#fff"/>
    <path id="Path_87708" data-name="Path 87708" d="M45.706,20.075a9.82,9.82,0,0,1-9.187-6.26.673.673,0,1,1,1.253-.492,8.525,8.525,0,1,0,0-6.239.673.673,0,1,1-1.253-.492,9.871,9.871,0,1,1,9.187,13.482Zm0,0" transform="translate(-34.938)" fill="#fff"/>
  </g>
</svg>
