<?xml version="1.0" encoding="utf-8"?>
<!-- Generator: Adobe Illustrator 26.1.0, SVG Export Plug-In . SVG Version: 6.00 Build 0)  -->
<svg version="1.1" id="Layer_1" xmlns="http://www.w3.org/2000/svg" xmlns:xlink="http://www.w3.org/1999/xlink" x="0px" y="0px"
	 viewBox="0 0 24 20" style="enable-background:new 0 0 24 20;" xml:space="preserve">
<style type="text/css">
	.st0{fill:#FFFFFF;}
</style>
<g>
	<path class="st0" d="M12,12.3H4.9c-2.6,0-4.8,2.2-4.8,4.8v2c0,0.4,0.3,0.7,0.7,0.7s0.7-0.3,0.7-0.7v-2c0-1.8,1.5-3.3,3.3-3.3H12
		c1.8,0,3.3,1.5,3.3,3.3v2c0,0.4,0.3,0.7,0.7,0.7c0.4,0,0.7-0.3,0.7-0.7v-2C16.8,14.5,14.6,12.3,12,12.3z"/>
	<path class="st0" d="M8.4,9.7c2.6,0,4.8-2.2,4.8-4.8s-2.2-4.8-4.8-4.8S3.6,2.3,3.6,4.9S5.8,9.7,8.4,9.7z M8.4,1.6
		c1.8,0,3.3,1.5,3.3,3.3s-1.5,3.3-3.3,3.3S5.1,6.8,5.1,4.9S6.6,1.6,8.4,1.6z"/>
	<path class="st0" d="M23.2,8.2h-2.3V5.9c0-0.4-0.3-0.7-0.7-0.7s-0.7,0.3-0.7,0.7v2.3h-2.3c-0.4,0-0.7,0.3-0.7,0.7
		c0,0.4,0.3,0.7,0.7,0.7h2.3V12c0,0.4,0.3,0.7,0.7,0.7s0.7-0.3,0.7-0.7V9.7h2.3c0.4,0,0.7-0.3,0.7-0.7C23.9,8.6,23.6,8.2,23.2,8.2z"
		/>
</g>
</svg>
